<svg id="图层_1" data-name="图层 1" xmlns="http://www.w3.org/2000/svg" viewBox="0 0 70.03 18.25"><path d="M31.1,61.94a.93.93,0,0,1-.32,0,1,1,0,0,1-.62-1.27l4.71-13.89a1,1,0,0,1,1.9.65L32.05,61.26A1,1,0,0,1,31.1,61.94Z" transform="translate(-12.17 -44.87)"/><path d="M46.23,61.94a.93.93,0,0,1-.32,0,1,1,0,0,1-.62-1.27L50,46.73a1,1,0,0,1,1.9.65L47.18,61.26A1,1,0,0,1,46.23,61.94Z" transform="translate(-12.17 -44.87)"/><path d="M29.66,63.12a2.49,2.49,0,0,1-2.18-1.27L20,48.62a2.5,2.5,0,1,1,4.35-2.47l7.52,13.23a2.51,2.51,0,0,1-2.17,3.74Z" transform="translate(-12.17 -44.87)"/><path d="M44.79,63.12a2.49,2.49,0,0,1-2.18-1.27L35.1,48.62a2.5,2.5,0,1,1,4.34-2.47L47,59.38a2.51,2.51,0,0,1-2.17,3.74Z" transform="translate(-12.17 -44.87)"/><path d="M61.35,61.93a.86.86,0,0,1-.32,0,1,1,0,0,1-.63-1.27l4.72-13.89a1,1,0,0,1,1.89.65L62.3,61.25A1,1,0,0,1,61.35,61.93Z" transform="translate(-12.17 -44.87)"/><path d="M76.48,61.93a.86.86,0,0,1-.32,0,1,1,0,0,1-.63-1.27l4.72-13.89a1,1,0,0,1,1.89.65L77.43,61.25A1,1,0,0,1,76.48,61.93Z" transform="translate(-12.17 -44.87)"/><path d="M59.9,63.11a2.49,2.49,0,0,1-2.17-1.27L50.21,48.6a2.5,2.5,0,0,1,4.35-2.46l7.51,13.23a2.51,2.51,0,0,1-2.17,3.74Z" transform="translate(-12.17 -44.87)"/><path d="M75,63.11a2.49,2.49,0,0,1-2.17-1.27L65.34,48.6a2.5,2.5,0,0,1,4.35-2.46l7.52,13.23a2.5,2.5,0,0,1-.94,3.41A2.53,2.53,0,0,1,75,63.11Z" transform="translate(-12.17 -44.87)"/><path d="M13.17,55a1,1,0,0,1,0-2c.21,0,5-.23,6.61-5.9a1,1,0,0,1,1.92.56A9.61,9.61,0,0,1,13.19,55Z" transform="translate(-12.17 -44.87)"/></svg>