<svg id="图层_1" data-name="图层 1" xmlns="http://www.w3.org/2000/svg" viewBox="0 0 48.43 24.6"><path d="M50.87,50.62a4.7,4.7,0,0,1-2.48-2.48,4.54,4.54,0,0,1,0-3.59,4.55,4.55,0,0,1,1-1.48,4.74,4.74,0,0,1,1.48-1,4.66,4.66,0,0,1,3.59,0,4.74,4.74,0,0,1,1.48,1,4.59,4.59,0,0,1,1.36,3.28,4.51,4.51,0,0,1-.36,1.79A4.63,4.63,0,0,1,52.66,51,4.51,4.51,0,0,1,50.87,50.62ZM54,49.4A3.49,3.49,0,0,0,55,48.68a3.3,3.3,0,0,0,.71-1A3.25,3.25,0,0,0,56,46.35a3.1,3.1,0,0,0-.26-1.29A3.46,3.46,0,0,0,55,44a3.3,3.3,0,0,0-1-.71A3.26,3.26,0,0,0,52.66,43a3.21,3.21,0,0,0-1.28.25,3.23,3.23,0,0,0-1.76,1.77,3.32,3.32,0,0,0,.7,3.62,3.49,3.49,0,0,0,1.06.72,3.43,3.43,0,0,0,2.57,0Zm-3-1.61L50.36,45a.61.61,0,0,1,0-.14.52.52,0,0,1,.13-.36.49.49,0,0,1,.36-.14q.44,0,.51.51L51.68,47h0l.44-2.15a.51.51,0,0,1,1,0L53.6,47h0L54,44.85q.08-.51.51-.51a.49.49,0,0,1,.36.14.52.52,0,0,1,.13.36A.61.61,0,0,1,55,45l-.6,2.81a.65.65,0,0,1-1.28,0L52.68,46h0l-.4,1.79a.65.65,0,0,1-1.28,0Z" transform="translate(-23.59 -41.7)"/><path d="M24.84,49l-1.21-6a2.35,2.35,0,0,1,0-.42.79.79,0,0,1,.83-.81.74.74,0,0,1,.77.66l1.13,6,1.26-5.71a1.11,1.11,0,0,1,2.22,0l1.26,5.73,1.12-6.06a.75.75,0,0,1,.78-.66.79.79,0,0,1,.84.81,2,2,0,0,1-.06.42l-1.21,6c-.15.87-.59,1.52-1.39,1.52S29.9,50,29.74,49l-1-4.94L27.64,49c-.16.95-.7,1.52-1.4,1.52S25,49.84,24.84,49Z" transform="translate(-23.59 -41.7)"/><path d="M35.8,49l-1.21-6a2.48,2.48,0,0,1-.05-.42.79.79,0,0,1,.83-.81.72.72,0,0,1,.77.66l1.14,6,1.25-5.71a1.09,1.09,0,0,1,1.12-1,1.08,1.08,0,0,1,1.11,1L42,48.44l1.12-6.06a.74.74,0,0,1,.78-.66.79.79,0,0,1,.84.81,2,2,0,0,1-.06.42l-1.21,6c-.15.87-.59,1.52-1.39,1.52S40.86,50,40.7,49l-1.05-4.94L38.6,49c-.16.95-.7,1.52-1.41,1.52S35.94,49.84,35.8,49Z" transform="translate(-23.59 -41.7)"/><path d="M25.25,63.32a1.63,1.63,0,0,1-.67-1,.74.74,0,0,1,.79-.77,1.84,1.84,0,0,1,1.07.57,3.9,3.9,0,0,0,2.51.87c1.2,0,1.88-.35,1.88-1s-.52-.92-1.45-1.07l-1.58-.26c-1.91-.31-2.9-1.15-2.9-2.42,0-1.58,1.47-2.54,3.84-2.54a5.53,5.53,0,0,1,3,.74,1.78,1.78,0,0,1,1,1.29.73.73,0,0,1-.78.74,2.22,2.22,0,0,1-1.09-.6,3.63,3.63,0,0,0-2.14-.65c-1.14,0-1.83.34-1.83.9s.52.81,1.52,1l1.64.27c1.86.31,2.78,1.13,2.78,2.45,0,1.7-1.51,2.72-4,2.72A5.26,5.26,0,0,1,25.25,63.32Z" transform="translate(-23.59 -41.7)"/><path d="M34.4,65.33V56.7a.93.93,0,1,1,1.85,0v.2a3.29,3.29,0,0,1,2.68-1.22c2.28,0,4,1.77,4,4.41s-1.72,4.42-4,4.42a3.23,3.23,0,0,1-2.68-1.16v2a.93.93,0,1,1-1.85,0Zm4.21-2.54a2.71,2.71,0,0,0,0-5.39,2.71,2.71,0,0,0,0,5.39Z" transform="translate(-23.59 -41.7)"/><path d="M44.2,62.06c0-1.3.82-2.12,2.52-2.48l2-.41c.72-.14.94-.33.94-.78,0-.67-.59-1.08-1.57-1.08a2.94,2.94,0,0,0-2.16.92,1.34,1.34,0,0,1-.92.49.7.7,0,0,1-.77-.71,1.49,1.49,0,0,1,.39-.92,4.47,4.47,0,0,1,3.47-1.41c2.19,0,3.45,1,3.45,2.88v3.52c0,.31.1.59.48.59a.53.53,0,0,0,.46-.24.52.52,0,0,1,.42-.2.57.57,0,0,1,.55.64,1.31,1.31,0,0,1-.32.85,2,2,0,0,1-1.53.73,1.82,1.82,0,0,1-1.72-1,3.45,3.45,0,0,1-2.65,1.08C45.39,64.49,44.2,63.54,44.2,62.06Zm3.45.87a1.8,1.8,0,0,0,2-1.71v-1a2,2,0,0,1-1,.39l-1,.2c-1,.2-1.43.56-1.43,1.15S46.78,62.93,47.65,62.93Z" transform="translate(-23.59 -41.7)"/><path d="M53.8,60.09a4.62,4.62,0,0,1,7.57-3.34,2.41,2.41,0,0,1,.74,1.45.78.78,0,0,1-.8.8,1.09,1.09,0,0,1-.93-.52,2.35,2.35,0,0,0-2.06-1.08,2.7,2.7,0,0,0,0,5.39,2.36,2.36,0,0,0,2.11-1.18,1,1,0,0,1,.88-.52.81.81,0,0,1,.83.82,2.4,2.4,0,0,1-.73,1.43,4.42,4.42,0,0,1-3.15,1.17A4.3,4.3,0,0,1,53.8,60.09Z" transform="translate(-23.59 -41.7)"/><path d="M63.67,60.09a4.11,4.11,0,0,1,4.25-4.42A3.83,3.83,0,0,1,72,59.55c0,.71-.34,1.05-1,1.05h-5.5a2.44,2.44,0,0,0,2.7,2.16,2.67,2.67,0,0,0,2-.78,1.35,1.35,0,0,1,.83-.36.67.67,0,0,1,.72.75,1.3,1.3,0,0,1-.28.74,4.57,4.57,0,0,1-7.85-3Zm6.5-1a2.14,2.14,0,0,0-2.31-1.89,2.18,2.18,0,0,0-2.31,1.89Z" transform="translate(-23.59 -41.7)"/></svg>